<?xml version="1.0" encoding="iso-8859-1"?>
<!-- Generator: Adobe Illustrator 18.1.1, SVG Export Plug-In . SVG Version: 6.00 Build 0)  -->
<svg version="1.1" id="Capa_1" xmlns="http://www.w3.org/2000/svg" x="0px" y="0px"
	 viewBox="0 0 298.708 298.708" style="enable-background:new 0 0 298.708 298.708;" xml:space="preserve">
<g>
	<path style="fill:#010002;" d="M149.357,0.003C66.993,0.003,0,66.996,0,149.354c0,82.353,66.998,149.351,149.357,149.351
		s149.351-66.998,149.351-149.351C298.708,66.996,231.71,0.003,149.357,0.003z M115.722,195.292H90.8l-21.191-39.7
		c-5.885-10.601-12.515-20.13-17.231-36.447h-0.582c0.729,16.317-1.343,30.209-1.343,46.401v29.746H28.697V97.389h29.719
		l20.614,36.534c5.891,10.454,11.634,23.296,16.192,34.174h0.299c-1.327-16.317-1.556-28.017-1.556-43.028V97.389h21.756V195.292z
		 M141.296,200.731H126.42L157.94,91.95h14.854L141.296,200.731z M241.696,195.292l-7.653-27.195h-28.419l-7.065,27.195h-23.127
		l30.192-97.903h29.436l30.932,97.903H241.696z M219.619,113.706h-0.305c-1.474,5.439-2.948,12.341-4.569,18.074l-5.885,19.999
		h21.936l-6.179-19.999C222.844,125.901,221.087,119.145,219.619,113.706z"/>
</g>
</svg>
