<svg xmlns="http://www.w3.org/2000/svg" width="256" height="256"><path fill-opacity=".016" d="M0 128.004v128.004l128.25-.254 128.25-.254.254-127.75L257.008 0H0v128.004m.485.496c0 70.4.119 99.053.265 63.672.146-35.38.146-92.98 0-128C.604 29.153.485 58.1.485 128.5" fill="#1976D2" fill-rule="evenodd"/><path fill-opacity=".163" d="M104.708 68.462c-33.736 4.272-63.755 15.184-82.382 29.945-9.104 7.215-14.852 14.199-19.031 23.125C.819 126.818.5 128.643.5 137.5c0 9.294.234 10.479 3.319 16.787 5.432 11.109 17.489 22.644 32.681 31.266l5 2.837-7.61-8.037c-4.914-5.191-8.81-10.475-11-14.921-3.205-6.51-3.39-7.46-3.39-17.455 0-10.279.108-10.789 3.919-18.504 19.53-39.544 99.892-61.462 172.081-46.934 20.096 4.044 42.003 12.285 53.678 20.193 6.872 4.655 7.551 4.811 3.844.886C238.819 88.577 206.341 74.888 172 69.47c-14.37-2.268-52.802-2.843-67.292-1.008M79 141v47h14.976l.262-36.832.262-36.832 12.739 15.082c7.007 8.295 14.457 17.066 16.555 19.492l3.817 4.409 21.36-25.909c11.748-14.251 22.636-27.281 24.195-28.958 1.559-1.676 2.834-3.363 2.834-3.75 0-.386-3.588-.702-7.972-.702h-7.973l-13.777 16.209c-7.578 8.916-14.903 17.441-16.278 18.945l-2.5 2.735-15.915-18.944L95.669 94H79v47m73.533-7.889c-12.633 15.403-23.501 28.447-24.152 28.987-.849.706-4.933-3.401-14.474-14.558-7.311-8.547-13.655-15.54-14.099-15.54-.445 0-.808 4.483-.808 9.962v9.962l14.196 16.63c11.251 13.181 14.414 16.338 15.25 15.22.58-.777 8.029-9.868 16.554-20.204l15.5-18.792.27 21.611.269 21.611H176v-41.5c0-22.825-.113-41.476-.25-41.447-.137.029-10.585 12.656-23.217 28.058" fill="#1976D2" fill-rule="evenodd"/><path fill-opacity=".681" d="M116.5 67.63c-45.547 3.78-83.21 18.218-102.843 39.424-16.436 17.752-17.808 37.574-3.883 56.098 4.924 6.552 16.748 16.477 25.26 21.206l5.145 2.858-6.34-6.411c-20.536-20.768-20.961-43.858-1.193-64.813 17.372-18.414 48.516-31.581 86.488-36.564 16.019-2.102 54.723-1.525 68.366 1.018 25.971 4.842 45.357 11.713 62.25 22.063 6.611 4.051 5.035 2.231-3.898-4.5-18.759-14.135-45.797-24.165-76.852-28.51-11.263-1.575-42.599-2.691-52.5-1.869M79.667 94.667c-.367.366-.667 21.516-.667 47V188h14.976l.262-37.098.262-37.097 16.369 19.347c9.004 10.642 16.654 19.177 17 18.967C129.097 151.378 175 95.518 175 94.765c0-.421-3.287-.765-7.304-.765h-7.304l-15.946 18.945c-8.77 10.42-16.192 18.97-16.494 19-.301.03-7.836-8.495-16.743-18.945L95.013 94h-7.34c-4.037 0-7.64.3-8.006.667m71.847 40.337c-13.148 15.953-24.219 28.665-24.604 28.25-.384-.414-6.596-7.648-13.804-16.074L100 131.86v20.794l13.25 15.611c7.288 8.586 13.526 15.639 13.863 15.673.337.034 8.1-8.998 17.25-20.071L161 143.734V188h15v-41c0-22.55-.131-41-.291-41-.16 0-11.048 13.052-24.195 29.004" fill="#1976D2" fill-rule="evenodd"/><path fill-opacity=".612" d="M117.791 68.041C54.855 72.524 7.192 98.329 1.137 131.197c-3.332 18.086 9.126 38.04 32.363 51.836l4 2.375-5.582-6.08c-10.56-11.501-14.467-21.28-13.712-34.32 2.591-44.765 83.348-76.865 164.727-65.479 22.148 3.099 45.836 10.626 61.567 19.564l7 3.977-4-3.467c-24.806-21.497-80.558-35.063-129.709-31.562M79.769 141.5l.27 46.5H93v-37.5c0-20.625.338-37.475.75-37.445.412.031 8.131 8.833 17.153 19.562 13.765 16.368 16.62 19.288 17.752 18.156.742-.742 11.393-13.482 23.67-28.311l22.32-26.962-6.473-.299c-3.56-.165-7.022-.089-7.693.169-.671.257-8.295 8.825-16.942 19.038l-15.721 18.571-12.323-14.468c-6.778-7.957-13.991-16.503-16.029-18.989L95.759 95H87.63l-8.13-.001.269 46.501M153 133.615c-12.375 15.119-23.238 28.166-24.139 28.992-1.489 1.364-2.864.069-15-14.125L100.5 132.855l-.287 9.612-.286 9.611 13.7 15.998c7.535 8.798 14.002 15.643 14.371 15.211.369-.433 8.058-9.767 17.087-20.743l16.415-19.955.269 22.705.269 22.706H176v-41c0-22.55-.113-40.972-.25-40.938-.137.035-10.375 12.433-22.75 27.553" fill="#1976D2" fill-rule="evenodd"/></svg>